<?xml version="1.0" standalone="no"?><!DOCTYPE svg PUBLIC "-//W3C//DTD SVG 1.1//EN" "http://www.w3.org/Graphics/SVG/1.1/DTD/svg11.dtd"><svg t="1627128955944" class="icon" viewBox="0 0 1024 1024" version="1.1" xmlns="http://www.w3.org/2000/svg" p-id="1219" xmlns:xlink="http://www.w3.org/1999/xlink" width="200" height="200"><defs><style type="text/css">@font-face { font-family: feedback-iconfont; src: url("//at.alicdn.com/t/font_1031158_1uhr8ri0pk5.eot?#iefix") format("embedded-opentype"), url("//at.alicdn.com/t/font_1031158_1uhr8ri0pk5.woff2") format("woff2"), url("//at.alicdn.com/t/font_1031158_1uhr8ri0pk5.woff") format("woff"), url("//at.alicdn.com/t/font_1031158_1uhr8ri0pk5.ttf") format("truetype"), url("//at.alicdn.com/t/font_1031158_1uhr8ri0pk5.svg#iconfont") format("svg"); }
</style></defs><path d="M510.8 959.2C758.9 959.2 960 758.1 960 510S758.9 60.8 510.8 60.8 61.6 261.9 61.6 510s201.1 449.2 449.2 449.2zM272.9 742.5l23.2-135c3.4-19.8-3.2-39.9-17.5-53.9L180.4 458c-36.2-35.2-16.2-96.6 33.8-103.9l135.5-19.7c19.8-2.9 37-15.3 45.9-33.3l60.6-122.8c22.3-45.3 86.9-45.3 109.2 0L626 301.1c8.9 18 26 30.4 45.9 33.3l135.5 19.7c50 7.3 69.9 68.7 33.8 103.9l-85.9 83.7-12.2 11.8c-14 13.6-20.6 33.1-17.8 52.4 0.1 0.5 0.2 1 0.2 1.5l23.2 135c8.5 49.8-43.7 87.7-88.4 64.2l-121.2-63.7c-17.7-9.3-38.9-9.3-56.7 0l-121.2 63.7c-12.4 6.5-25.3 8.3-37.4 6.4-10.5-1.6-20.3-6-28.5-12.4-16.5-12.8-26.6-34.1-22.4-58.1z" fill="#01AA7A" p-id="1220"></path><path d="M323.9 811.6c0 0.5-0.1 1-0.1 1.5 12.1 1.9 25 0.1 37.4-6.4L482.4 743c17.7-9.3 38.9-9.3 56.7 0l121.2 63.7c44.7 23.5 96.9-14.5 88.4-64.2l-23.2-135c-0.1-0.5-0.2-1-0.2-1.5-134.4-29.5-388.8 33.3-401.4 205.6z" fill="#EA590A" p-id="1221"></path><path d="M666.2 533.7c30.7 0 60.5 2.8 89 8l85.9-83.7c36.2-35.2 16.2-96.6-33.8-103.9l-135.5-19.7c-19.8-2.9-37-15.3-45.9-33.3l-60.6-122.8c-22.3-45.3-86.9-45.3-109.2 0l-60.6 122.8c-8.9 18-26 30.4-45.9 33.3l-135.5 19.7c-50 7.3-69.9 68.7-33.8 103.9l98.1 95.6c14.4 14 20.9 34.2 17.5 53.9l-23.2 135c-4.1 24 5.9 45.3 22.5 58.3 7.8-148.5 170.9-267.1 371-267.1z" fill="#EA590A" p-id="1222"></path><path d="M295.4 800.7c8.2 6.4 18 10.8 28.5 12.4 0-0.5 0.1-1 0.1-1.5C336.5 639.3 590.9 576.5 725.4 606c-2.8-19.3 3.8-38.8 17.8-52.4l12.2-11.8c-28.5-5.3-58.3-8-89-8-200.3-0.1-363.4 118.5-371 266.9z" fill="#FFD301" p-id="1223"></path></svg>