<?xml version="1.0" standalone="no"?><!DOCTYPE svg PUBLIC "-//W3C//DTD SVG 1.1//EN" "http://www.w3.org/Graphics/SVG/1.1/DTD/svg11.dtd"><svg t="1623740222797" class="icon" viewBox="0 0 1024 1024" version="1.1" xmlns="http://www.w3.org/2000/svg" p-id="2583" xmlns:xlink="http://www.w3.org/1999/xlink" width="200" height="200"><defs><style type="text/css"></style></defs><path d="M959 221.1v581.5c0 34.8-28.2 63-63 63H127c-34.8 0-63-28.2-63-63V221.1c0-34.8 28.2-63 63-63h769c34.8 0 63 28.2 63 63z" fill="#FFD301" p-id="2584"></path><path d="M727.3 456.3L497.4 650.7l-68.8-81.4c-21.5-25.4-59.4-28.6-84.8-7.1L64 798.8v6.7c0 33.2 26.9 60.2 60.2 60.2h774.7c33.2 0 60.2-26.9 60.2-60.2V637.2l-147-173.8c-21.5-25.4-59.4-28.6-84.8-7.1z" fill="#EA590A" p-id="2585"></path><path d="M273.4 371.2m-86.2 0a86.2 86.2 0 1 0 172.4 0 86.2 86.2 0 1 0-172.4 0Z" fill="#0D4D90" p-id="2586"></path></svg>