<?xml version="1.0" standalone="no"?><!DOCTYPE svg PUBLIC "-//W3C//DTD SVG 1.1//EN" "http://www.w3.org/Graphics/SVG/1.1/DTD/svg11.dtd"><svg class="icon" width="200px" height="200.00px" viewBox="0 0 1024 1024" version="1.1" xmlns="http://www.w3.org/2000/svg"><path d="M30.118 380.048v575.248h963.764V380.048H30.118z m683.688 306.638c-32.322 49.146-171.45 166.008-201.592 166.008-29.53 0-169.908-117.29-202.02-166.008-16.068-24.384-27.474-51.308-25.584-86.688 3.352-62.62 54.558-114.344 117.266-114.344 64.47 0 110.132 68.792 110.132 68.792s48.406-68.792 110.104-68.792c62.714 0 113.924 51.722 117.272 114.344 1.898 35.378-9.474 62.192-25.578 86.688z" fill="#BDDEE5" /><path d="M30.118 127.064h963.764v252.988H30.118z" fill="#FECC85" /><path d="M512.01 554.446s-45.662-68.792-110.132-68.792c-62.708 0-113.914 51.722-117.266 114.342-1.888 35.376 9.518 62.302 25.584 86.688 32.108 48.718 172.486 166.008 202.02 166.008 30.142 0 169.27-116.862 201.592-166.008 16.1-24.498 27.476-51.308 25.578-86.688-3.352-62.62-54.562-114.342-117.272-114.342" fill="#FF5E8A" /><path d="M512.214 882.814c-8.93 0-32.648 0-119.242-71.65-39.134-32.38-88.036-77.73-107.924-107.906-14.342-21.76-33.106-56.304-30.512-104.866 4.286-80.106 69.008-142.854 147.342-142.854 48.456 0 87.148 29.156 110.54 52.776 23.842-23.5 62.93-52.776 109.694-52.776 78.342 0 143.062 62.748 147.348 142.852 2.6 48.45-16.152 83.038-30.486 104.84-20.058 30.5-68.704 75.818-107.542 108.062-86.146 71.522-110.174 71.522-119.218 71.522z m2.958-59.96z m-113.294-307.082c-45.544 0-84.658 38.506-87.19 85.836-1.286 24.092 4.894 44.58 20.658 68.506 27.238 41.334 144.8 139.098 176.86 151.754 11.194-4.644 41.204-23.58 86.142-61.428 41.444-34.906 77.734-71.198 90.292-90.302 15.776-23.998 21.958-44.492 20.67-68.524-2.532-47.332-41.65-85.838-87.2-85.838-37.394 0-74.412 40.478-85.522 56.076-5.75 8.078-15.108 12.894-25.052 12.676a30.124 30.124 0 0 1-24.622-13.424c-0.316-0.47-37.82-55.332-85.036-55.332z"  /><path d="M993.882 96.942H832V68.706c0-16.634-13.486-30.118-30.118-30.118s-30.118 13.484-30.118 30.118v28.236H542.118V68.706c0-16.634-13.486-30.118-30.118-30.118-16.634 0-30.118 13.484-30.118 30.118v28.236H252.236V68.706c0-16.634-13.484-30.118-30.118-30.118S192 52.072 192 68.706v28.236H30.118C13.484 96.942 0 110.424 0 127.058V955.294c0 16.634 13.484 30.118 30.118 30.118h963.764c16.63 0 30.118-13.484 30.118-30.118V127.058c0-16.634-13.486-30.116-30.118-30.116zM60.236 157.176H192v12.048c0 16.634 13.484 30.118 30.118 30.118s30.118-13.484 30.118-30.118v-12.048h229.648v12.048c0 16.634 13.484 30.118 30.118 30.118 16.63 0 30.118-13.484 30.118-30.118v-12.048h229.648v12.048c0 16.634 13.486 30.118 30.118 30.118S832 185.858 832 169.224v-12.048h131.764v192.752H60.236V157.176z m903.528 768H60.236V410.164h903.53v515.012z"  /><path d="M761.964 301.742H172.17c-16.634 0-30.118-13.484-30.118-30.118s13.484-30.118 30.118-30.118h589.796c16.63 0 30.118 13.484 30.118 30.118s-13.486 30.118-30.12 30.118zM851.818 301.748c-1.958 0-3.948-0.21-5.872-0.602a30.438 30.438 0 0 1-5.632-1.716 31.972 31.972 0 0 1-5.208-2.77c-1.626-1.084-3.196-2.35-4.58-3.734s-2.65-2.922-3.734-4.578a30.524 30.524 0 0 1-4.484-10.842c-0.394-1.928-0.572-3.916-0.572-5.872s0.18-3.946 0.572-5.904c0.392-1.898 0.96-3.794 1.714-5.632 0.752-1.808 1.69-3.554 2.77-5.18 1.084-1.656 2.35-3.192 3.734-4.578s2.952-2.65 4.58-3.764a32.054 32.054 0 0 1 5.208-2.77 30.286 30.286 0 0 1 5.632-1.716 29.774 29.774 0 0 1 11.776 0 30.53 30.53 0 0 1 10.84 4.486c1.626 1.114 3.162 2.38 4.58 3.764a28.702 28.702 0 0 1 3.732 4.578 30.526 30.526 0 0 1 2.77 5.18c0.752 1.838 1.326 3.734 1.716 5.632 0.392 1.958 0.602 3.946 0.602 5.904s-0.21 3.946-0.602 5.872-0.964 3.824-1.716 5.632a29.63 29.63 0 0 1-2.77 5.21 28.702 28.702 0 0 1-3.732 4.578 31.804 31.804 0 0 1-4.58 3.734 32.054 32.054 0 0 1-5.208 2.77 30.424 30.424 0 0 1-11.536 2.318z"  /></svg>