<?xml version="1.0" standalone="no"?><!DOCTYPE svg PUBLIC "-//W3C//DTD SVG 1.1//EN" "http://www.w3.org/Graphics/SVG/1.1/DTD/svg11.dtd"><svg t="1623738834077" class="icon" viewBox="0 0 1024 1024" version="1.1" xmlns="http://www.w3.org/2000/svg" p-id="1186" xmlns:xlink="http://www.w3.org/1999/xlink" width="200" height="200"><defs><style type="text/css"></style></defs><path d="M510.8 307.5m-243.3 0a243.3 243.3 0 1 0 486.6 0 243.3 243.3 0 1 0-486.6 0Z" fill="#FFD301" p-id="1187"></path><path d="M918.8 959.2c0-225.4-182.7-417.1-408-417.1s-408 191.8-408 417.1h816z" fill="#FFD301" p-id="1188"></path><path d="M716.1 636.5m-120.5 0a120.5 120.5 0 1 0 241 0 120.5 120.5 0 1 0-241 0Z" fill="#0D4D90" p-id="1189"></path><path d="M918.1 959.2c0-111.6-90.5-206.5-202-206.5s-202 94.9-202 206.5h404z" fill="#0D4D90" p-id="1190"></path><path d="M668.5 308c-4.9-5.4-11.8-8.4-19.1-8.4h-0.6c-13.2 0-24.1 10-25.5 23.4-5.9 57.9-54.2 101.5-112.5 101.5S404.2 380.9 398.3 323c-1.4-13.3-12.3-23.4-25.5-23.4h-0.6c-7.2 0-14.2 3.1-19.1 8.4-4.8 5.3-7.1 12.3-6.5 19.3 3.9 40.6 22.7 78.2 53 105.8 30.4 27.8 69.9 43.1 111.2 43.1s80.7-15.3 111.2-43.1c30.2-27.6 49.1-65.2 53-105.8 0.6-7-1.7-14.1-6.5-19.3z" fill="#EA590A" p-id="1191"></path></svg>