<?xml version="1.0" standalone="no"?><!DOCTYPE svg PUBLIC "-//W3C//DTD SVG 1.1//EN" "http://www.w3.org/Graphics/SVG/1.1/DTD/svg11.dtd"><svg t="1623740056060" class="icon" viewBox="0 0 1024 1024" version="1.1" xmlns="http://www.w3.org/2000/svg" p-id="1462" xmlns:xlink="http://www.w3.org/1999/xlink" width="200" height="200"><defs><style type="text/css"></style></defs><path d="M869 522l-0.4-0.7c35.6-40 57.2-92.7 57.2-150.5 0-125.2-101.5-226.7-226.7-226.7-89.3 0-166.5 51.7-203.5 126.7-37-75-114.2-126.7-203.5-126.7-125.2 0-226.7 101.5-226.7 226.7 0 57.8 21.6 110.4 57.2 150.5l-0.4 0.7 371.5 356L869 522z" fill="#EA590A" p-id="1463"></path><path d="M495.5 270.8c-37-75-114.2-126.7-203.5-126.7-125.2 0-226.7 101.5-226.7 226.7 0 57.8 21.6 110.4 57.2 150.5l-0.4 0.7 373.4-251.2z" fill="#0D4D90" p-id="1464"></path><path d="M924.4 704.2l-0.2-0.3c17.4-19.6 27.9-45.3 27.9-73.5 0-61.2-49.6-110.7-110.7-110.7-43.6 0-81.3 25.2-99.4 61.9-18.1-36.6-55.8-61.9-99.4-61.9-61.2 0-110.7 49.6-110.7 110.7 0 28.2 10.6 53.9 27.9 73.5l-0.2 0.3L741.1 878l183.3-173.8z" fill="#FFD301" p-id="1465"></path></svg>