<?xml version="1.0" standalone="no"?><!DOCTYPE svg PUBLIC "-//W3C//DTD SVG 1.1//EN" "http://www.w3.org/Graphics/SVG/1.1/DTD/svg11.dtd"><svg t="1623740001406" class="icon" viewBox="0 0 1024 1024" version="1.1" xmlns="http://www.w3.org/2000/svg" p-id="1180" xmlns:xlink="http://www.w3.org/1999/xlink" width="200" height="200"><defs><style type="text/css"></style></defs><path d="M802.9 956h-581c-34.8 0-63-28.2-63-63V128.7c0-34.8 28.2-63 63-63h581c34.8 0 63 28.2 63 63V893c0 34.8-28.2 63-63 63z" fill="#01AA7A" p-id="1181"></path><path d="M717 450.2H307.8c-34.8 0-63-28.2-63-63V65.7H780v321.5c0 34.8-28.2 63-63 63z" fill="#FFD301" p-id="1182"></path><path d="M702.7 336.3H597.1c-16.5 0-30-13.5-30-30v-96.6c0-16.5 13.5-30 30-30h105.5c16.5 0 30 13.5 30 30v96.6c0.1 16.5-13.4 30-29.9 30z" fill="#0D4D90" p-id="1183"></path><path d="M735.7 747.5H289.1c-24.6 0-44.7-20.1-44.7-44.7s20.1-44.7 44.7-44.7h446.6c24.6 0 44.7 20.1 44.7 44.7 0 24.5-20.1 44.7-44.7 44.7z" fill="#FFD301" p-id="1184"></path></svg>