<?xml version="1.0" standalone="no"?><!DOCTYPE svg PUBLIC "-//W3C//DTD SVG 1.1//EN" "http://www.w3.org/Graphics/SVG/1.1/DTD/svg11.dtd"><svg t="1626267776507" class="icon" viewBox="0 0 1024 1024" version="1.1" xmlns="http://www.w3.org/2000/svg" p-id="1219" xmlns:xlink="http://www.w3.org/1999/xlink" width="200" height="200"><defs><style type="text/css"></style></defs><path d="M74.2 154.1L62.8 476.3c-0.6 17.4 5.2 33.1 16.4 44.3l422.6 422.6c25.2 25.2 70.4 21 100.9-9.5l333.6-333.6c30.5-30.5 34.7-75.6 9.5-100.9L523.2 76.7c-11.2-11.2-27-17.1-44.3-16.4L156.7 71.7c-42.4 1.5-81 40-82.5 82.4z" fill="#01AA7A" p-id="1220"></path><path d="M483.8 264.1L266.7 481.3c-20.5 20.5-53.8 20.5-74.3 0s-20.5-53.8 0-74.3l217.2-217.2c20.5-20.5 53.8-20.5 74.3 0 20.4 20.6 20.4 53.8-0.1 74.3z" fill="#0D4D90" p-id="1221"></path><path d="M712.4 709.9c-69.1 69.1-182.3 69.1-251.4 0l-34.3-34.3c-69.1-69.1-69.1-182.3 0-251.4s182.3-69.1 251.4 0l34.3 34.3c69.2 69.1 69.2 182.2 0 251.4z" fill="#FFD301" p-id="1222"></path></svg>