<?xml version="1.0" standalone="no"?><!DOCTYPE svg PUBLIC "-//W3C//DTD SVG 1.1//EN" "http://www.w3.org/Graphics/SVG/1.1/DTD/svg11.dtd"><svg t="1623740130512" class="icon" viewBox="0 0 1024 1024" version="1.1" xmlns="http://www.w3.org/2000/svg" p-id="1883" xmlns:xlink="http://www.w3.org/1999/xlink" width="200" height="200"><defs><style type="text/css"></style></defs><path d="M959.1 359.9H417.9l63.5-209.7c8-26.6 32.5-44.7 60.3-44.7h293.6c27.8 0 52.2 18.2 60.3 44.7l63.5 209.7z" fill="#0D4D90" p-id="1884"></path><path d="M896.1 917.8H127.6c-34.8 0-63-28.2-63-63v-537c0-34.8 28.2-63 63-63h768.5c34.8 0 63 28.2 63 63v537c0 34.8-28.2 63-63 63z" fill="#EA590A" p-id="1885"></path><path d="M682.9 586.4m-200.4 0a200.4 200.4 0 1 0 400.8 0 200.4 200.4 0 1 0-400.8 0Z" fill="#FFD301" p-id="1886"></path><path d="M272.7 421.6H64.6v-92.5h285.2z" fill="#0D4D90" p-id="1887"></path></svg>