<?xml version="1.0" standalone="no"?><!DOCTYPE svg PUBLIC "-//W3C//DTD SVG 1.1//EN" "http://www.w3.org/Graphics/SVG/1.1/DTD/svg11.dtd"><svg t="1623740177365" class="icon" viewBox="0 0 1024 1024" version="1.1" xmlns="http://www.w3.org/2000/svg" p-id="2162" xmlns:xlink="http://www.w3.org/1999/xlink" width="200" height="200"><defs><style type="text/css"></style></defs><path d="M717.9 822.6H130.3c-34.8 0-63-28.2-63-63V265c0-34.8 28.2-63 63-63h587.6c34.8 0 63 28.2 63 63v494.5c0 34.9-28.2 63.1-63 63.1z" fill="#0D4D90" p-id="2163"></path><path d="M871.2 726.8L679.8 551.1c-22.4-20.6-22.4-56 0.2-76.7l192.1-176.5c33.5-30.8 87.4-7.2 87.3 38.2l-0.7 352.2c-0.2 45.4-54.2 69.2-87.5 38.5z" fill="#01AA7A" p-id="2164"></path><path d="M292.2 512.3m-128.6 0a128.6 128.6 0 1 0 257.2 0 128.6 128.6 0 1 0-257.2 0Z" fill="#EA590A" p-id="2165"></path></svg>