<?xml version="1.0" standalone="no"?><!DOCTYPE svg PUBLIC "-//W3C//DTD SVG 1.1//EN" "http://www.w3.org/Graphics/SVG/1.1/DTD/svg11.dtd"><svg t="1623740090450" class="icon" viewBox="0 0 1024 1024" version="1.1" xmlns="http://www.w3.org/2000/svg" p-id="1602" xmlns:xlink="http://www.w3.org/1999/xlink" width="200" height="200"><defs><style type="text/css"></style></defs><path d="M798.4 951.9H124.1c-34.8 0-63-28.2-63-63V214.6c0-34.8 28.2-63 63-63h674.2c34.8 0 63 28.2 63 63v674.2c0.1 34.8-28.1 63.1-62.9 63.1z" fill="#EA590A" p-id="1603"></path><path d="M68.1 914.4c4.3 8.7 10.5 16.4 18 22.5L861.4 278 760.3 160 68.1 914.4z" fill="#FFD301" p-id="1604"></path><path d="M795 221.6l9.8 9.8-183.3 211 121.3 121.3c30.8 30.8 77.8 24.9 88.1-11.2l127.3-443.3c6.5-22.7-18.5-47.8-41.2-41.2L473.8 195.4c-36.1 10.4-42 57.3-11.2 88.1l121.3 121.3L795 221.6z" fill="#0D4D90" p-id="1605"></path></svg>